<svg xmlns="http://www.w3.org/2000/svg" viewBox="0 0 526.14 77.63"><defs><style>.cls-1,.cls-2{fill:#fff;}.cls-1{fill-rule:evenodd;}</style></defs><g id="Layer_2" data-name="Layer 2"><g id="Layer_1-2" data-name="Layer 1"><path class="cls-1" d="M196.63,14.2l-7.07,62.93h11l1-12.61h4.6l.89,12.61h11.22L211,14.2ZM202,54.43l1.79-24.09.11,1.64,1.69,22.45Z"/><path class="cls-1" d="M374.56,14.2,367.5,77.13h11l1-12.61h4.59l.9,12.61H396.2L388.91,14.2Zm5.38,40.23,1.77-24.08.14,1.63,1.68,22.45Z"/><polygon class="cls-1" points="240.58 45.98 236.99 14.2 222.08 14.2 222.08 77.13 233.74 77.13 233.74 40.81 237.66 77.13 243.49 77.13 247.64 40.81 247.64 77.13 259.3 77.13 259.3 14.2 244.28 14.2 240.58 45.98"/><polygon class="cls-1" points="264.24 77.13 282.96 77.13 282.96 67.04 275.9 67.04 275.9 47.87 282.96 47.87 282.96 37.78 275.9 37.78 275.9 24.17 282.96 24.17 282.96 14.2 264.24 14.2 264.24 77.13"/><path class="cls-1" d="M301.68,14.33,288,14.2V77.13h11.66V52.29h.79a3.49,3.49,0,0,1,1.23.25,3.85,3.85,0,0,1,1.24.76,4.75,4.75,0,0,1,.67,2.52V77.13h11.66V57A15.28,15.28,0,0,0,314,50.14a7.27,7.27,0,0,0-4.15-3.28,8.11,8.11,0,0,0,4.37-3.4c.56-1.64,1-4.79,1-9.46V27.19c0-5.8-.71-9.3-2.3-10.83S307.4,14.33,301.68,14.33Zm1.91,22.57v1.77c0,1.26-.27,1.86-.65,2.18a2.05,2.05,0,0,1-1.26.46h-2V24.17s1.79.09,2,.12a2.27,2.27,0,0,1,1.46.38,6.93,6.93,0,0,1,.45,3Z"/><rect class="cls-2" x="320.07" y="14.2" width="11.66" height="62.93"/><path class="cls-1" d="M350.23,12.94c-6.05,0-9.87,1-11.32,2.4-1.35,1.13-2.24,4.91-2.24,10.47v39c0,5.55.89,9.08,2.24,10.47,1.45,1.64,5.27,2.39,11.32,2.39s9.76-.75,11.44-2.39c1.46-1.14,2.24-4.92,2.24-10.47V50.4H352.25v15a2.1,2.1,0,0,1-.56,1.64,2.35,2.35,0,0,1-1.46.5,1.48,1.48,0,0,1-1.45-.75,5.46,5.46,0,0,1-.46-2.27V26.31a5.88,5.88,0,0,1,.46-2.52A1.59,1.59,0,0,1,350,23a1.9,1.9,0,0,1,1.87.93,6.38,6.38,0,0,1,.37,2.35v8.45h11.66V25.81c0-5.3-.78-8.83-2.24-10.47C360.21,14,356.4,12.94,350.23,12.94Z"/><polygon class="cls-1" points="417.06 46.48 411 14.2 400.01 14.2 400.01 77.13 410.22 77.13 410.22 46.23 416.27 77.13 427.26 77.13 427.26 14.2 417.06 14.2 417.06 46.48"/><rect class="cls-2" x="432.53" y="14.2" width="11.66" height="62.93"/><polygon class="cls-1" points="466.61 46.48 460.56 14.2 449.57 14.2 449.57 77.13 459.77 77.13 459.77 46.23 465.83 77.13 476.82 77.13 476.82 14.2 466.61 14.2 466.61 46.48"/><path class="cls-1" d="M495.21,12.94h-.12c-6,0-9.86,1-11.32,2.4-1.35,1.13-2.24,4.91-2.24,10.47v39c0,5.55.89,9.08,2.24,10.47,1.46,1.64,5.27,2.39,11.32,2.39h.12c5.94,0,9.64-.75,11.32-2.39,1.46-1.14,2.24-4.92,2.24-10.47V26.06c0-5.55-.78-9.08-2.24-10.72C505.07,14.08,501.15,12.94,495.21,12.94Zm1.9,51.58v1.13a1.89,1.89,0,0,1-.56,1.39,2,2,0,0,1-1.34.5h-.12a1.51,1.51,0,0,1-1.46-.75,5.67,5.67,0,0,1-.44-2.27V25.18a2.43,2.43,0,0,1,.44-1.39,2.21,2.21,0,0,1,1.24-.76l.69.06a1.62,1.62,0,0,1,1.19.86,6.43,6.43,0,0,1,.36,2.36Z"/><path class="cls-1" d="M515.68,58.19l6.69,1.51V58.43l-1.68-.32V56.67l1.68-.33V55l-6.69,1.52Zm4-1.34v1.06l-2.81-.53Z"/><polygon class="cls-1" points="515.68 34.62 515.68 35.96 518.19 36.96 515.68 37.97 515.68 39.35 519.53 37.6 522.37 37.6 522.37 36.34 519.53 36.34 515.68 34.62"/><polygon class="cls-1" points="521.23 47.04 515.68 47.04 515.68 48.28 522.37 48.28 522.37 44.79 521.23 44.79 521.23 47.04"/><polygon class="cls-1" points="516.78 65.44 515.68 65.44 515.68 69.55 516.78 69.55 516.78 68.12 522.37 68.12 522.37 66.87 516.78 66.87 516.78 65.44"/><rect class="cls-2" x="515.68" y="76.27" width="6.69" height="1.25"/><path class="cls-1" d="M522.42,21.31a1.65,1.65,0,0,0-.18-.85,1.12,1.12,0,0,0-.54-.4,1.49,1.49,0,0,0,.71-.57,1.67,1.67,0,0,0,.26-.91,1.33,1.33,0,0,0-.55-1.19,3.05,3.05,0,0,0-1.73-.39h-3.6v5.86h1.47V20.7H520a1,1,0,0,1,.82.25A1.8,1.8,0,0,1,521,22v.39a2,2,0,0,0,0,.25l.09.21h1.65a2.59,2.59,0,0,1-.31-1.39A.71.71,0,0,0,522.42,21.31Zm-1.58-2a1.86,1.86,0,0,1-.92.16h-1.66V18.17h1.6a2.41,2.41,0,0,1,1,.14.52.52,0,0,1,.25.5A.57.57,0,0,1,520.84,19.34Z"/><path class="cls-1" d="M519.51,13.39A6.63,6.63,0,1,0,526.14,20,6.63,6.63,0,0,0,519.51,13.39Zm0,12.34A5.72,5.72,0,1,1,525.22,20,5.72,5.72,0,0,1,519.51,25.73Z"/><path class="cls-1" d="M156,17.25c-.73-1.15-1.73-2.63-3.34-1.61a2.78,2.78,0,0,1-3.22-.37C135.83,6,120.51-.61,100.59,0q-1.32,4.83-2.34,9.64l3,2.28c.92.63.78,1.28-.42,1.7L97.21,15q-.75,4.08-1.3,8.15l2.72.54c.67.14.85.52.25,1.15l-3.63,3.74q-.31,2.92-.54,5.85l3.67.24c.68.07.91.41.4,1.12l-4.43,4q-.15,3-.24,6L98,46c.68.07.91.41.4,1.12l-4.38,4q0,3.54.06,7.08l4.26.86c.66.15.84.53.24,1.16l-4.35,3c.11,2.69.25,3.11.43,5.81.38,2.28,1.07,2.51,2.35,2.29,1.56-.26,2.26.31,1.43,1.63-.5.95-1,1.91-1.49,2.87-.73,1.14-.59,1.7.16,1.86h39.36c1.69,0,2.41-.82,2.1-2.84C135.24,52.49,142.87,33.93,156,17.25Z"/><path class="cls-1" d="M81.54,46l3.9-.25q-.07-3-.24-6l-4.42-4c-.51-.71-.29-1,.39-1.12l3.68-.24q-.22-2.93-.54-5.85L80.68,24.8c-.6-.63-.42-1,.24-1.15l2.73-.54c-.37-2.71-.81-5.43-1.3-8.15l-3.62-1.3c-1.2-.42-1.34-1.07-.43-1.7l3-2.28C80.62,6.47,79.85,3.26,79,0,59.05-.61,43.73,6,30.09,15.27a2.78,2.78,0,0,1-3.22.37c-1.61-1-2.61.46-3.34,1.61C36.69,33.93,44.31,52.49,41,74.79c-.32,2,.41,2.87,2.1,2.84H82.44c.75-.16.89-.72.16-1.86L81.1,72.9c-.83-1.32-.12-1.89,1.44-1.63,1.28.22,2,0,2.35-2.29.17-2.7.32-3.12.42-5.81l-4.34-3c-.6-.63-.43-1,.24-1.16l4.26-.86q.07-3.54.06-7.08l-4.38-4C80.64,46.42,80.86,46.08,81.54,46Zm1.68,7.5v2.58c-2.68.53-6.44,1.24-8.25,1.64-.73.18-.92.6-.24,1.29l8.2,5.88v.24l0,.15v.43l0,.14v.29l0,.15v.31l0,.16v.17l0,.17,0,.18v.19l0,.2v.21l0,.22,0,.22c-2.08,0-4.19.1-5.43,0-.75,0-1.05.32-.59,1.17l3.17,5.8H43.23v-.06l0-.16L43.55,73l.22-2.12.17-2.1L44,66.67l0-2.06,0-2-.08-2-.15-2-.2-2-.26-2-.32-2-.38-1.93-.42-1.91-.48-1.89L41.22,45l-.59-1.85L40,41.36l-.68-1.82-.73-1.8L37.82,36,37,34.19l-.86-1.74-.91-1.73L34.29,29l-1-1.7-1-1.68L31.21,24,30.1,22.29,29,20.65,27.79,19l-.62-.83.12,0,.2,0,.21,0,.2,0h.61l.19,0,.2,0,.19,0,.18,0,.19-.05.18-.05.17-.06L30,18l.17-.07.15-.07.16-.08.15-.08.15-.08.15-.09.14-.08.14-.09.13-.1.08-.06,1.24-.83,1.27-.82,1.28-.81,1.29-.79,1.3-.78,1.31-.75,1.32-.73,1.34-.71,1.34-.69,1.36-.66L45.83,9l1.38-.62,1.41-.59L50,7.18l1.44-.54,1.45-.51,1.46-.48,1.49-.46,1.5-.42,1.53-.39L60.44,4,62,3.69l1.58-.3,1.61-.26,1.63-.23,1.65-.19,1.67-.15,1.7-.12,1.72-.08,1.75,0h1.87l0,.12.07.29.08.3.08.3.07.29.08.3.07.3.08.3.07.29.07.3.08.3L78,5.7l.07.3.07.3.07.3.07.29.07.3.07.3,0,.12L72.76,12c-.92.63-.78,1.28.42,1.7,2.32.83,4.37,2,6.69,2.87l.12,0,.33.14,0,.17,0,.25,0,.25,0,.26,0,.25,0,.25,0,.25,0,.25,0,.26,0,.25,0,.25,0,.25,0,.25,0,.25,0,.14-6.06,1.19c-.86.19-1.09.66-.32,1.48,1.8,1.85,5.47,5.48,7.68,7.73v.08l0,.19,0,.18,0,.18v.18l0,.18,0,.18V32l0,.14c-2.6.11-5.74.22-7.36.32-.75.07-1,.45-.43,1.24L83,42V43.4c-2.7.11-6.3.23-8.07.34-.75.07-1,.46-.43,1.24l8.66,8.49Z"/><path class="cls-1" d="M15.47,51.16c-1,.78-.18,1.46.56,1,3.91-2.38,8-4.33,13-4.18,1,.06,1.53.58.87,2.12-1,2.61.15,5,3.1,4.79,1-.52,1.41-1.21.66-2.22-.19-.4-.29-.88.16-1.19,1.93-1.2,1.44-3.2.1-4.53C29.46,41.86,19.35,48.59,15.47,51.16Z"/><path class="cls-1" d="M32.51,57.35c-3.3-1-5-3.46-3.39-7,.4-1.2-1.16-1.59-2.06-.69a6.59,6.59,0,0,0-1.22,4.63c.74,3.7,3.31,4.81,6.38,5.19C33.85,59.51,34.09,57.6,32.51,57.35Z"/><path class="cls-1" d="M20.05,52.61c-1,.14-.5.59-2.3.85-2.36-.15-4,3.14-1.46,3.7s2.36.22,2.57.56a2.71,2.71,0,0,0,2.3.34c.5-.31.5-2.46.34-3.14S21.05,52.48,20.05,52.61Z"/><path class="cls-1" d="M21.68,19.1c-.5.28-1,.56-1.49.85a1.19,1.19,0,0,0-.35,1.53C20,24.2,9.71,31.93,7.83,35.09A92.83,92.83,0,0,0,.39,50.4c-.51,1.38-.66,2.22.43,2.66l1.38.74c.78.35,1,.79.95,1.28v.43a1,1,0,0,0-.53.84c0,.53.56.75.54,1s-.6.75-.62,1.39a1.86,1.86,0,0,0,.28,1.06,15.77,15.77,0,0,1-.41,1.85c-.93,4,0,6.25,3.61,6,5.33-.17,8.57.9,8.08,4.14q-.31,2.77-.64,5.53H36.64c2,.08,2.51-.81,2.44-2.12,3.56-25.33-5.3-40.39-14.88-54.85C23.39,19.07,22.71,18.62,21.68,19.1ZM37.09,72.56,36.78,75H16.06c.34-2.93,1-5.92-1.75-8a11.45,11.45,0,0,0-5.83-1.62c-.85,0-1.7,0-2.55,0-.69,0-1.32.21-1.48-.43a5.76,5.76,0,0,1,.08-2.07c.16-.83.4-1.64.55-2.48l.17-1L5,58.92a2.76,2.76,0,0,0,.35-2.37c.33-2.41,0-3.7-2.82-5.2h0l.22-.63a79.76,79.76,0,0,1,4.48-9.77l.25-.47c.43-.8.88-1.6,1.33-2.4a2.22,2.22,0,0,1,1.37.65,5.86,5.86,0,0,0,3.32,1.67c1.73.36,1.24,1,2.06,1.35a2.32,2.32,0,0,0,2.43-.1,6.36,6.36,0,0,1,4.5-1.12c2.52.17,4.1.17,5.08-.23a10.45,10.45,0,0,1,3.09-.56c.59,0,1.37-1,0-1.47A24.07,24.07,0,0,0,25,37.47l-1.94,0a2,2,0,0,0-1.47-.56,2,2,0,0,0-1.45.54c-3.3,0-7,0-7.31-.08-.42-.07-1-.66-1.67-.72s-1-.09-1.49-.12l.11-.2.13-.2.18-.24.23-.29.28-.33c2.08-2.28,4.43-4.31,6.64-6.46,1.92-1.9,4.22-4,4.87-6.7l0-.6h0l0,0,0,0,.06.1C27.39,29.35,32,37.11,34.9,46A68.18,68.18,0,0,1,37.09,72.56Z"/><path class="cls-1" d="M171.73,35.09c-1-2.91-5.25-8.23-9.54-11.8-.5-.29-3-.81-2.48-1.81a1.18,1.18,0,0,0-.34-1.53l-1.49-.85c-1-.48-1.71,0-2.52,1.22-9.58,14.46-18.45,29.52-14.89,54.85-.07,1.31.5,2.2,2.45,2.12h23.17q-.32-2.76-.64-5.53c-.48-3.24,2.76-4.31,8.08-4.14,3.63.3,4.55-2,3.62-6a15.77,15.77,0,0,1-.41-1.85,1.86,1.86,0,0,0,.28-1.06c0-.64-.6-1-.62-1.39s.56-.49.54-1a1,1,0,0,0-.53-.84c0-.15,0-.3,0-.43,0-.49.17-.93,1-1.28l1.38-.74c1.09-.44.94-1.28.43-2.66A93.63,93.63,0,0,0,171.73,35.09ZM146.61,49.28a1.88,1.88,0,0,1,1.22-1.75,2.25,2.25,0,0,1,1.86-1.14c1.33,0,2.66,0,4,.12A20.17,20.17,0,0,1,162,49c.67.48.28,1.12-.41.81-3-1.86-6.76-2.55-11.41-2.45-1.39,0-1,.93-.83,1.92,1.27,1.11.33,3.2-1.13,3.72-.54.14-.7-.27-.29-.54s1.89-1.35.71-1.82c-.38,0-.75.12-1.13.12C146.47,50.77,146.52,50.15,146.61,49.28Zm2,10.5c-1.33.16-1.47-2-.12-1.82,3.15.17,5.12-1,5.38-4.24,0-.42.22-.61.43-.67s.35,0,.47.39C155,56.76,153.46,59.27,148.57,59.78Zm15.78-3.63h-2.09c-.41-.06-.69,0-.82.23-.41.61-.89,1.12-1.29,1.73-.35.41-1.09.74-1.16-.16.16-1,1.1-1.86,1.44-3.71.16-.36.4-.58.83-.46L165,55.66C165.24,56,165,56.16,164.35,56.15ZM163.81,40q.38-1-1.41-1.41a44.64,44.64,0,0,0-10.2.5c-.78.06-.92-.37,0-.59a54.76,54.76,0,0,1,14.2-1C169.75,38.2,163.75,42.07,163.81,40Z"/></g></g></svg>