<svg id="Layer_1" data-name="Layer 1" xmlns="http://www.w3.org/2000/svg" viewBox="0 0 214 244.57"><defs><style>.cls-1{fill:#fff;}.cls-2{fill:#333;}</style></defs><path class="cls-1" d="M88,189c0-4-28-35-32-36s-28-11-28-15-2-27,0-29,16-9,16-9H66L80,56s1-31,7-33,29-5,29-5,8,16,12,20,10,34,10,34,12,3,18,5,27,10,32,11,25,12,25,12,1,26,1,28-8,32-7,36-5,29-5,31,2,28,2,31,1,11-4,11-43,3-44,3-31-12-33-9" transform="translate(-15.71 -6)"/><path class="cls-2" d="M66.16,45.74V86.91a55,55,0,0,0-10.7-1c-22.89,0-39.75,16.75-39.75,43.95C15.71,151.46,38.9,157,53.35,166a116.77,116.77,0,0,1,15.88,12.35l.07.06.07.06c8.35,7.32,11.31,11.09,11.31,14.42v1.28a16.11,16.11,0,0,0-3.82,10.56v30.58c0,8.44,6.16,15.28,13.75,15.28H200.67c7.6,0,13.76-6.84,13.76-15.28V204.71a16.16,16.16,0,0,0-3.82-10.56v-1.28c0-13.71,19.1-32.07,19.1-60.76V121.93c0-29.87-18.46-47.19-43.53-47.74a44.37,44.37,0,0,0-30-7.63,44.39,44.39,0,0,0-10.54-3.79v-17A40,40,0,0,0,105.9,6C84.36,6,66.16,24.2,66.16,45.74Zm56.55,0V89.22c7-6.13,20.46-6.88,29.17,2.37,9.38-5.36,21.79-.81,25.61,6.17,18.69-3.11,29.3,4.82,29.3,24.17v10.18c0,21.73-17.16,36.88-19,57.32H103.4C102,177.37,93.26,168.9,84.49,161.21a138.06,138.06,0,0,0-19-14.71c-11.17-6.92-26.8-12.48-26.8-16.69,0-11.16,4.21-21,16.82-21,16.81,0,25.35,12.61,33.63,12.61V45.74c0-8.8,7.88-16.81,16.81-16.81A17.11,17.11,0,0,1,122.71,45.74Zm61.15,162.8A11.46,11.46,0,1,1,172.39,220,11.46,11.46,0,0,1,183.86,208.54Z" transform="translate(-15.71 -6)"/></svg>