<svg xmlns="http://www.w3.org/2000/svg" width="254.036" height="254.036" viewBox="0 0 254.036 254.036">
  <g id="IconUserAutenticar" transform="translate(-3776.982 -2919.982)">
    <g id="seleccion" transform="translate(3776.982 2919.982)">
      <circle id="Elipse_317" data-name="Elipse 317" cx="112" cy="112" r="112" transform="translate(15.018 15.018)" fill="#fff"/>
      <circle id="Elipse_318" data-name="Elipse 318" cx="112" cy="112" r="112" transform="translate(15.018 15.018)" fill="#a5ddff"/>
      <circle id="Elipse_319" data-name="Elipse 319" cx="92" cy="92" r="92" transform="translate(35.018 35.018)" fill="#fff"/>
      <path id="Trazado_691" data-name="Trazado 691" d="M137.095,254.19A117.095,117.095,0,0,1,54.3,54.3a117.095,117.095,0,1,1,165.6,165.6A116.327,116.327,0,0,1,137.095,254.19Zm0-224.266A107.171,107.171,0,1,0,244.266,137.095,107.293,107.293,0,0,0,137.095,29.923Z" transform="translate(-10.077 -10.077)"/>
      <path id="Trazado_692" data-name="Trazado 692" d="M379.966,152.269a4.963,4.963,0,0,1-4.86-3.99,87.487,87.487,0,0,0-49.738-62.411,4.962,4.962,0,1,1,4.083-9.045,97.43,97.43,0,0,1,55.386,69.509,4.966,4.966,0,0,1-4.87,5.936Z" transform="translate(-162.46 -38.485)"/>
      <path id="Trazado_693" data-name="Trazado 693" d="M294.814,75.121a4.97,4.97,0,0,1-1.191-.145l-.124-.03a4.962,4.962,0,0,1,2.32-9.649l.178.043a4.963,4.963,0,0,1-1.183,9.781Z" transform="translate(-145.959 -32.829)"/>
      <path id="Trazado_694" data-name="Trazado 694" d="M70.126,142.822A4.966,4.966,0,0,1,65.3,136.7a97.385,97.385,0,0,1,73.073-72.025,4.962,4.962,0,0,1,2.182,9.681,87.8,87.8,0,0,0-65.608,64.667A4.964,4.964,0,0,1,70.126,142.822Z" transform="translate(-32.83 -32.523)"/>
      <path id="Trazado_695" data-name="Trazado 695" d="M119.372,357.739a4.933,4.933,0,0,1-2.133-.485A97.688,97.688,0,0,1,63.71,288.607a4.962,4.962,0,0,1,9.731-1.946A87.719,87.719,0,0,0,121.513,348.3a4.962,4.962,0,0,1-2.14,9.441Z" transform="translate(-32.05 -142.42)"/>
      <path id="Trazado_696" data-name="Trazado 696" d="M207.209,436.747a4.98,4.98,0,0,1-1.173-.141l-.068-.017a4.937,4.937,0,1,1,1.242.158Z" transform="translate(-101.871 -215.041)"/>
      <path id="Trazado_697" data-name="Trazado 697" d="M292.04,367.967a4.962,4.962,0,0,1-1.087-9.8A87.8,87.8,0,0,0,356.561,293.5a4.962,4.962,0,1,1,9.647,2.323,97.386,97.386,0,0,1-73.073,72.024A4.969,4.969,0,0,1,292.04,367.967Z" transform="translate(-144.642 -145.959)"/>
      <path id="Trazado_698" data-name="Trazado 698" d="M250.962,47.136A4.962,4.962,0,0,1,246,42.174V4.962a4.962,4.962,0,1,1,9.923,0V42.174A4.962,4.962,0,0,1,250.962,47.136Z" transform="translate(-123.944)"/>
      <path id="Trazado_699" data-name="Trazado 699" d="M250.962,464.136A4.962,4.962,0,0,1,246,459.174V421.962a4.962,4.962,0,1,1,9.923,0v37.212A4.962,4.962,0,0,1,250.962,464.136Z" transform="translate(-123.944 -210.099)"/>
      <path id="Trazado_700" data-name="Trazado 700" d="M459.174,255.923H421.962a4.962,4.962,0,1,1,0-9.923h37.212a4.962,4.962,0,0,1,0,9.923Z" transform="translate(-210.099 -123.944)"/>
      <path id="Trazado_701" data-name="Trazado 701" d="M42.174,255.923H4.962a4.962,4.962,0,1,1,0-9.923H42.174a4.962,4.962,0,1,1,0,9.923Z" transform="translate(0 -123.944)"/>
      <path id="Trazado_703" data-name="Trazado 703" d="M255.681,255.206l-20.628,20.628-20.628-20.628Z" transform="translate(-108.035 -128.582)" fill="#fff"/>
    </g>
    <g id="Grupo_186" data-name="Grupo 186" transform="translate(3739.179 2921.179)">
      <path id="Trazado_709" data-name="Trazado 709" d="M275.955,173.615v5.378a21.514,21.514,0,0,1-21.514,21.514h0a21.514,21.514,0,0,1-21.514-21.514v-5.378A21.514,21.514,0,0,1,254.44,152.1h0A21.515,21.515,0,0,1,275.955,173.615Z" transform="translate(-90.039 -57.119)" fill="#ffe7d6"/>
      <path id="Trazado_710" data-name="Trazado 710" d="M243.5,221.961h0a49.652,49.652,0,0,0-46.2,31.471,67.8,67.8,0,0,0,92.4,0A49.653,49.653,0,0,0,243.5,221.961Z" transform="translate(-79.1 -78.572)" fill="#fcd44f"/>
      <path id="Trazado_715" data-name="Trazado 715" d="M179.555,216.925a6.8,6.8,0,0,0,.8.745,74.64,74.64,0,0,0,100.959,0,6.87,6.87,0,0,0,.8-.745,74.78,74.78,0,1,0-102.56,0Zm13.555-6.574a42.724,42.724,0,0,1,75.45,0,60.8,60.8,0,0,1-75.45,0Zm23.14-51.113v-5.379a14.584,14.584,0,1,1,29.169,0v5.379a14.584,14.584,0,1,1-29.169,0Zm14.585-57.613A60.892,60.892,0,0,1,278.7,200.2a56.088,56.088,0,0,0-26.484-22.231,28.317,28.317,0,0,0,7.066-18.732V153.86a28.443,28.443,0,1,0-56.886,0v5.379a28.317,28.317,0,0,0,7.066,18.732A56.092,56.092,0,0,0,182.975,200.2a60.892,60.892,0,0,1,47.86-98.577Z" transform="translate(-66.433 -37.363)"/>
      <path id="Trazado_718" data-name="Trazado 718" d="M229.256,218.605h0s-22.157.943-30.992,12.063c8.377,3.9,18.581,8.916,30.992,9.529.473.024,1.267.045,2.069.045,13.147,0,22.657-5.423,31.578-9.573C257.559,223.884,244.721,218.605,229.256,218.605Z" transform="translate(-64.923 -53.748)" fill="#ffab4f"/>
    </g>
  </g>
</svg>
