<svg xmlns="http://www.w3.org/2000/svg" width="448" height="491.314" viewBox="0 0 448 491.314">
  <g id="ImageServices" transform="translate(-32 -10.343)">
    <rect id="Rect치ngulo_1575" data-name="Rect치ngulo 1575" width="172" height="299" rx="20" transform="translate(160 117)" fill="#1097fe"/>
    <rect id="Rect치ngulo_1576" data-name="Rect치ngulo 1576" width="142" height="267" rx="16" transform="translate(176 133)" fill="#5bb8ff"/>
    <path id="Trazado_689" data-name="Trazado 689" d="M112,328h48l32,24V328h32a16,16,0,0,0,16-16V248a16,16,0,0,0-16-16H112a16,16,0,0,0-16,16v64A16,16,0,0,0,112,328Z" fill="#fcd44f"/>
    <path id="Trazado_673" data-name="Trazado 673" d="M385.056,259.644h-42.4L314.4,282.555V259.644H286.132c-7.8,0-14.132-6.838-14.132-15.274v-61.1c0-8.436,6.327-15.274,14.132-15.274h98.924c7.8,0,14.132,6.838,14.132,15.274v61.1C399.188,252.806,392.861,259.644,385.056,259.644Z" transform="translate(0 5.445)" fill="#d3f8ff"/>
    <path id="Trazado_674" data-name="Trazado 674" d="M108.187,298.268h36.561l38.237,18.982v-8.693L193.5,298.268c6.731,0,12.187-4.945,12.187-11.045V243.045c0-6.1-5.456-11.045-12.187-11.045H108.187C101.456,232,96,236.945,96,243.045v44.179C96,293.323,101.456,298.268,108.187,298.268Z" transform="translate(0 32)" fill="#ffab4f"/>
    <path id="Trazado_675" data-name="Trazado 675" d="M480,256c0-101.259-68.233-190.245-165.931-216.4l-4.138,15.456C400.645,79.341,464,161.971,464,256c0,107.84-82.5,196.766-187.693,207.007l9.35-9.35-11.314-11.314-24,24a8,8,0,0,0,0,11.314l24,24,11.314-11.314-11.11-11.11A224,224,0,0,0,480,256Z"/>
    <path id="Trazado_676" data-name="Trazado 676" d="M297.472,35.833c-5.472-1.024-11.055-1.854-16.594-2.466l-1.756,15.9c5.142.568,10.326,1.338,15.406,2.29Z"/>
    <path id="Trazado_677" data-name="Trazado 677" d="M48,256C48,148.16,130.5,59.234,235.693,48.993l-9.35,9.35,11.314,11.314,24-24a8,8,0,0,0,0-11.314l-24-24L226.343,21.657l11.11,11.11A224,224,0,0,0,32,256c0,101.259,68.233,190.245,165.931,216.4l4.138-15.456C111.355,432.659,48,350.029,48,256Z"/>
    <path id="Trazado_678" data-name="Trazado 678" d="M214.528,476.167c5.472,1.024,11.055,1.854,16.594,2.466l1.756-15.9c-5.142-.568-10.326-1.338-15.406-2.29Z"/>
    <path id="Trazado_679" data-name="Trazado 679" d="M328,88H184a32.036,32.036,0,0,0-32,32V224H112a24.027,24.027,0,0,0-24,24v64a24.027,24.027,0,0,0,24,24h40v56a32.036,32.036,0,0,0,32,32H328a32.036,32.036,0,0,0,32-32V272h40a24.027,24.027,0,0,0,24-24V184a24.027,24.027,0,0,0-24-24H360V120a32.036,32.036,0,0,0-32-32ZM160,320H112a8.009,8.009,0,0,1-8-8V248a8.009,8.009,0,0,1,8-8H224a8.009,8.009,0,0,1,8,8v64a8.009,8.009,0,0,1-8,8H192a8,8,0,0,0-8,8v8l-19.2-14.4A8,8,0,0,0,160,320Zm184,72a16.019,16.019,0,0,1-16,16H184a16.019,16.019,0,0,1-16-16V344l19.2,14.4A8,8,0,0,0,200,352V336h24a24.027,24.027,0,0,0,24-24V248a24.027,24.027,0,0,0-24-24H168V120a16.019,16.019,0,0,1,16-16H328a16.019,16.019,0,0,1,16,16v40H288a24.027,24.027,0,0,0-24,24v64a24.027,24.027,0,0,0,24,24h24v16a8,8,0,0,0,12.8,6.4L344,280Zm56-216a8.009,8.009,0,0,1,8,8v64a8.009,8.009,0,0,1-8,8H352a8,8,0,0,0-4.8,1.6L328,272v-8a8,8,0,0,0-8-8H288a8.009,8.009,0,0,1-8-8V184a8.009,8.009,0,0,1,8-8Z"/>
    <path id="Trazado_680" data-name="Trazado 680" d="M232,120h16v16H232Z"/>
    <path id="Trazado_681" data-name="Trazado 681" d="M264,120h16v16H264Z"/>
    <path id="Trazado_682" data-name="Trazado 682" d="M248,376h16v16H248Z"/>
    <path id="Trazado_683" data-name="Trazado 683" d="M296,192h16v16H296Z"/>
    <path id="Trazado_684" data-name="Trazado 684" d="M328,192h64v16H328Z"/>
    <path id="Trazado_685" data-name="Trazado 685" d="M296,224h96v16H296Z"/>
    <path id="Trazado_686" data-name="Trazado 686" d="M120,256h16v16H120Z"/>
    <path id="Trazado_687" data-name="Trazado 687" d="M152,256h64v16H152Z"/>
    <path id="Trazado_688" data-name="Trazado 688" d="M120,288h96v16H120Z"/>
  </g>
</svg>
