<svg id="IMGPagos" xmlns="http://www.w3.org/2000/svg" width="252.873" height="292.722" viewBox="0 0 252.873 292.722">
  <path id="Trazado_610" data-name="Trazado 610" d="M122.786,111.46,223.7,65.856a59.315,59.315,0,1,0-100.915,45.6Z" transform="translate(-64.966 -4.283)" fill="#ffdb87"/>
  <path id="Trazado_611" data-name="Trazado 611" d="M159.688,110.7l59.3-28.876a31.892,31.892,0,0,0,.275-4.181c0-19.9-17.66-36.969-40.439-36.969s-37.814,17.067-37.814,36.969C141.015,89.92,148.955,104.192,159.688,110.7Z" transform="translate(-78.503 -8.325)" fill="#36d6ff" stroke="#fff" stroke-width="15"/>
  <path id="Trazado_612" data-name="Trazado 612" d="M272.635,138.8l-13.17-29.243s-26.38,10.359-50.137-16.16c-206,70.435-131.572,46.7-131.572,46.7Z" transform="translate(-53.226 -17.874)" fill="#2ae2bd"/>
  <path id="Trazado_613" data-name="Trazado 613" d="M349.676,79.24l15.558,34.428A37.82,37.82,0,0,1,315.249,94.8Z" transform="translate(-154.938 -33.937)" fill="#02bf8c"/>
  <path id="Trazado_614" data-name="Trazado 614" d="M44.85,213.776V357.79a20.77,20.77,0,0,0,20.771,20.77H280.376a5.912,5.912,0,0,0,5.913-5.912V222.276a8.5,8.5,0,0,0-8.5-8.5Z" transform="translate(-39.133 -91.556)" fill="#f5f7fc"/>
  <path id="Trazado_615" data-name="Trazado 615" d="M267.838,196.8a39.271,39.271,0,0,0-71.182,0Z" transform="translate(-104.148 -74.577)" fill="#ffd36c"/>
  <path id="Trazado_616" data-name="Trazado 616" d="M96.952,177.7a59.7,59.7,0,0,1-9.967-13.032H72.929A28.078,28.078,0,0,0,44.85,192.744H63.663Z" transform="translate(-39.133 -70.524)" fill="#bbb8c7"/>
  <path id="Trazado_617" data-name="Trazado 617" d="M248.89,283.863V253.776H84.85v91.608H248.89V318.071" transform="translate(-31.672 -100.687)" fill="#5bb8ff" stroke="#1097fe" stroke-linejoin="round" stroke-width="15"/>
  <path id="Trazado_618" data-name="Trazado 618" d="M369.857,429.437a5.7,5.7,0,0,1-1.121-.114,5.82,5.82,0,0,1-1.069-.326,6.044,6.044,0,0,1-.988-.527,5.688,5.688,0,0,1-.87-.709,5.755,5.755,0,0,1-1.669-4.042,5.614,5.614,0,0,1,.109-1.115,5.951,5.951,0,0,1,.325-1.075,5.79,5.79,0,0,1,.526-.983,5.415,5.415,0,0,1,.708-.87,5.753,5.753,0,0,1,1.858-1.235,5.356,5.356,0,0,1,1.069-.326,5.632,5.632,0,0,1,2.236,0,5.316,5.316,0,0,1,1.069.326,5.669,5.669,0,0,1,.989.526,5.73,5.73,0,0,1,.869.709,5.427,5.427,0,0,1,.709.87,5.822,5.822,0,0,1,.526.983,5.923,5.923,0,0,1,.325,1.075,5.631,5.631,0,0,1,.109,1.115,5.755,5.755,0,0,1-1.67,4.042,5.69,5.69,0,0,1-.869.709,6.081,6.081,0,0,1-.99.527,5.809,5.809,0,0,1-1.069.326A5.66,5.66,0,0,1,369.857,429.437Z" transform="translate(-175.878 -179.022)"/>
  <path id="Trazado_619" data-name="Trazado 619" d="M245.861,429.434H133.581a5.717,5.717,0,1,1,0-11.434H245.861a5.717,5.717,0,0,1,0,11.434Z" transform="translate(-74.686 -179.02)"/>
  <path id="Trazado_620" data-name="Trazado 620" d="M409.079,366.617h-55.3a22.226,22.226,0,0,1-22.226-22.225h0a22.227,22.227,0,0,1,22.226-22.227h55.3Z" transform="translate(-161.923 -137.976)" fill="#fcd44f"/>
  <path id="Trazado_621" data-name="Trazado 621" d="M273.505,116.5h-5.469L250.36,77.388l0-.011L234.8,42.949a5.715,5.715,0,0,0-7.564-2.855L198.319,53.16A65.044,65.044,0,1,0,73.664,88.428H68.646a33.833,33.833,0,0,0-33.8,33.793V266.235a26.517,26.517,0,0,0,26.488,26.487H276.093a11.644,11.644,0,0,0,11.63-11.631V130.721A14.235,14.235,0,0,0,273.505,116.5Zm-71.493,0a44.988,44.988,0,0,0-78.126,0H85.915l106.73-48.232A43.615,43.615,0,0,0,229.652,88.8a43.148,43.148,0,0,0,12.484-1.844L255.489,116.5Zm-14.021,0h-50.1a33.54,33.54,0,0,1,50.1,0Zm-89.15-51.47a35.529,35.529,0,0,1,71.058,0q0,.488-.013.977L111.632,92.334A35.57,35.57,0,0,1,98.841,65.032Zm138.53,11.378a32.152,32.152,0,0,1-34.181-12.9l23.542-10.639Zm-103-64.976a53.636,53.636,0,0,1,53.146,46.607l-6.362,2.875a46.964,46.964,0,1,0-80.786,36.508l-6.334,2.863a53.912,53.912,0,0,1-6.356-8.957q-.1-.178-.213-.347a53.609,53.609,0,0,1,46.905-79.548ZM68.646,99.862h10.8a65.128,65.128,0,0,0,3.775,5.31L58.149,116.5H47.025A22.4,22.4,0,0,1,68.646,99.862ZM276.093,281.288H61.338a15.07,15.07,0,0,1-15.053-15.053v-138.3H273.506a2.786,2.786,0,0,1,2.783,2.783v47.75H264.854V145.088a5.717,5.717,0,0,0-5.717-5.717H63.436a5.717,5.717,0,0,0-5.717,5.717V264.136a5.718,5.718,0,0,0,5.717,5.717h195.7a5.717,5.717,0,0,0,5.717-5.717V234.359h11.435v46.733A.2.2,0,0,1,276.093,281.288Zm.2-58.363H226.71a16.509,16.509,0,0,1,0-33.019h49.579v33.019Zm-22.869-44.453H226.71a27.944,27.944,0,0,0,0,55.888h26.71v24.06H69.153V150.806H253.419Z" transform="translate(-34.85)" fill="#141b21"/>
  <path id="Trazado_719" data-name="Trazado 719" d="M397.429,340.392H358.335c-36.123,2.832-20.824-20.542-7.892-18.228h46.985Z" transform="translate(-155.937 -117.553)" fill="#ffab4f"/>
</svg>
