<svg xmlns="http://www.w3.org/2000/svg" viewBox="0 0 407.46 153.77"><defs><style>.cls-1{fill:#fff;fill-rule:evenodd;}</style></defs><g id="Layer_2" data-name="Layer 2"><g id="Layer_1-2" data-name="Layer 1"><path class="cls-1" d="M230.16,46.29s6.27,2.51,9.15-4.36c2.22-5.53-1.05-7-4.09-7.67S224.47,43,230.16,46.29Z"/><path class="cls-1" d="M66,109.18c-11.92,10.14-22.75,17.33-32.21,13.91-20.43-7.39-17.59-32-8.1-55.38,7.1-17.54,13.8-28,34.9-48C78.47,2.78,92.4,6.79,95.06,8.93c5.52,4.44,2.18,9.81.79,12.1C92.26,26.93,81.16,33.36,82,34.75c.64,1,1,3.45,2.15,3.11,3-.87,14.13-8.66,18.81-13.92,9.11-10.27.5-22.7-12.64-23.82C62.88-2.27,23.79,32.76,7.92,62.45-5.94,88.38-2.67,121.84,26.21,132.24c19.81,7.13,38.49-13,42.37-16.66,5.06-5.09,5-6.91,5-6.91l-2.08-2.52C69.59,104.58,69.26,106.46,66,109.18Z"/><path class="cls-1" d="M406.71,68c-1.18-.7-2.71.58-3.29,1.81C394,83.56,389.13,88.14,381.79,85.13c-4-1.64-4.72-4.83-4.62-11,.25-11.81,10.52-32.14,12.54-35.55s-2.89-7-4.18-7.81-4,2.87-7.83,6.7-12.2,12.08-13.12,12.11,1.4-5.32,2.34-7.89-2.16-3.8-3.8-4.76-2.6,1.14-5.81,3.63-11,5.74-11,5.74,1.29-9.05-5-9.86-11.11,2.8-14.21,8c-20.08,10.77-25.27,35.71-25.27,35.71s-7.5,5.67-9.21,4.47,1.48-14.47,6.27-24,3.65-13.46,0-14.38-13.6,12.35-15.1,12.31,4.3-6.78,0-8.45-16.37,11.19-20,14.11l0,0c2.21-9,1.38-14.66.57-15.43-1.36-1.28-7.56-5.8-23.51,8.27C225,71,220.63,90.78,220.53,91.25h0c-.27.29-10.56,11.35-11.93,6.66s13.56-27.46,17.33-32.45,1.93-8.52.54-9.59-2.68-.59-6.29,1.4S203.83,64.08,203,61c0-.06-.1,0-.1,0-.28-3.62-4.87-5.8-9.41-2.19-4.84,3.84-1.68,9.84,1.74,10.68a2.68,2.68,0,0,1,.36.52c-6,14.21-17.83,35.13-24.28,31.07-4.53-2.86,11.38-27.51,14.15-31.43s2.41-5-.11-6.15-5,1.38-6.61,3.56S154.14,96.33,147,102.53s-11.22,6.37-12.52,4.39a1.93,1.93,0,0,1,.74-3,114.17,114.17,0,0,0,18.47-15.44c9-9.37,9.93-20.9,5.16-23.66s-13.57-2.29-23.31,7.94S124,101,123.36,106.57c0,0,0,0,0,0-1.84,2.72-6.48,7.15-9.49,5s7.48-27.21,10.51-31.45,6.28-8.47.93-10-21.85,22.41-23.91,25.12c-1,1.35-2.21,3.42-4.21,3.59-1.72.14-.94-1.71-.94-1.71S119.47,34.78,125.53,25s-2.91-5.72-2.91-5.72A18.42,18.42,0,0,0,114,26.62c-3.74,5.68-22,55.83-27.9,71.05S75.7,126.51,75.7,126.51s-1.63,4,1.38,3.59,5.82-.87,5.82-.87,2,0,3.84-5.37,10.34-17.13,17-23c.87-1.05,2-.59,1.23,2.46s-5.55,17.57.46,20.3c4.21,1.9,9.17-.35,12.71-5.33,0,0,2.93-4,5.08-4S127,119,132.41,119s11.31-2.45,19.36-11.7,11-14.72,12.17-14.7.71,2.09-.9,5.66-3.92,15.38,1.63,17.4c10.72,3.87,16.29-5.82,25.13-17.87,8.5-11.61,10.86-26.08,11.13-27,0,0,0,0,.06,0,.31.12,1.95.65,5-.15s8.88-2,9.89-2.25a.05.05,0,0,1,.06.08c-1.62,2.09-24.17,31.49-16.62,42.61,1.92,2.82,9.83,1.38,20.37-12.82a.06.06,0,0,1,.11,0c-1.54,3.61,3.12,7.53,6.8,7.76,5.87.38,14.71-10.15,17.77-14.08l.07-.23a12.27,12.27,0,0,1,.81-.93l-.88,1.16-5.16,17s-.92,0-.92,0A76.4,76.4,0,0,0,204,122.65c-16.08,12-14.85,23.21-11.27,27.71s26.92,7,39.31-8.75c10.48-13.3,13.34-27.06,13.37-27.85,0,0,0,0,0,0,10.09-2,19.19-3.31,18.88-6s-17.31-.2-17.31-.2c5.22-14,5-13.88,6.81-20.37,0,0,0,0,0,0a88.75,88.75,0,0,0,8.34-17.74,3.9,3.9,0,0,0,1.73-.77c2.19-1.53,7.51-6.91,8.7-6.34s1.57,1.68-.9,4.83-9.89,24-11.56,27.17-.91,4.78,2.81,5.36,6-.72,6.85-3.65,9-25.32,13.88-31.13,6.87-6.36,7.63-6-.53,3.2-2.38,5.92-11.5,26.13-7,30,8.14,1,10.25-.63a91.59,91.59,0,0,1,8.41-5.61s.26,5.83,4.79,7.41,17-4.45,26.55-16.43a68,68,0,0,0,12.42-25.2s8.52-4.42,12.47-4a122.71,122.71,0,0,1-7.08,15.86c-4.28,7.83-6.62,16.44-4.94,18s5.33,3.11,7-.09,10.52-21.33,15-26.7,6.91-6.09,7.91-5.66.3,2-2.33,6.76-12.19,27.86.26,34.62c19.54,10.64,32.31-19,33.61-20.76S407.91,68.7,406.71,68ZM141,77.91c6-6.4,12.15-9.39,14.07-7.93s.77,5.38-6.25,13.19a71.82,71.82,0,0,1-13.68,12C132.05,97,135.06,84.31,141,77.91Zm58.21-15.54a1.7,1.7,0,1,1-3.38-.31,1.7,1.7,0,1,1,3.38.31ZM228,134.28c-8.71,10-21.44,9.26-22.68,5.44s2.08-9.9,13.48-17.08,17.69-7.53,17.69-7.53C239.89,113.84,233.81,127.89,228,134.28Zm21-55.31C239.36,91,233,95.39,230.47,93.7c0,0,0,0,0,0-.14-.32-3.54-8.45,9.81-25.41,11.31-13.45,15.3-13.42,16.7-12.48S258.75,66.89,249.05,79Zm85.33-19.55a54.63,54.63,0,0,1-8.85,15.33c-5.86,6.85-12.62,12.87-15.3,10.35S318.58,60,321.47,55.34s4.88-4.41,4.88-4.41c1.73-.1,2.45,2,3.6,2.69a16.17,16.17,0,0,0,4.4,1.53C336.35,55.68,334.38,59.42,334.38,59.42Zm2.9-10c-1.17,1.55-2.66,0-3.76-.94a2.17,2.17,0,0,1-.2-3.41c1.12-.86,3.23-1.45,4.18-.67A4.92,4.92,0,0,1,337.28,49.41Z"/></g></g></svg>