<?xml version="1.0" encoding="utf-8"?>
<!-- Generator: Adobe Illustrator 24.1.1, SVG Export Plug-In . SVG Version: 6.00 Build 0)  -->
<svg version="1.1" id="Layer_1" xmlns="http://www.w3.org/2000/svg" xmlns:xlink="http://www.w3.org/1999/xlink" x="0px" y="0px"
	 viewBox="0 0 55.7 13.6" style="enable-background:new 0 0 55.7 13.6;" xml:space="preserve">
<style type="text/css">
	.st0{fill:#F9F9F9;}
</style>
<path id="logostirpe_1_" class="st0" d="M46.3,13.3c-0.4-0.2-0.8-0.5-1.1-0.9c-0.4-0.4-0.6-0.9-0.8-1.4c-0.1-0.2-0.1-0.3-0.1-0.5
	c-0.1-0.3-0.1-0.7-0.1-1V6.8c-0.1,0.2-0.2,0.3-0.3,0.4c-0.3,0.4-0.7,0.7-1.1,0.9c-0.2,0.1-0.4,0.2-0.6,0.2c-0.2,0.1-0.5,0.1-0.8,0.1
	H36v5.2h-2.7V4.7h-2.7V4.2c0-0.1,0-0.3,0-0.4c-0.1-0.1-0.1-0.2-0.2-0.3l-0.3-0.2l-0.3-0.1h-1.9v10.5h-2.7V0h4.5
	c0.5,0,0.9,0.1,1.3,0.3c0.4,0.2,0.8,0.5,1.2,0.9c0.3,0.4,0.6,0.9,0.8,1.4c0.1,0.4,0.2,0.7,0.3,1.1V0h7.9c0.3,0,0.5,0.1,0.7,0.1
	c0.2,0.1,0.5,0.2,0.7,0.3c0.4,0.2,0.8,0.5,1.2,0.9c0.3,0.3,0.5,0.7,0.7,1.1c0.2-0.4,0.4-0.8,0.7-1.1c0.3-0.4,0.7-0.7,1.2-0.9
	c0.2-0.1,0.4-0.2,0.7-0.2C47.3,0,47.5,0,47.7,0h4.5c0.5,0,0.9,0.1,1.3,0.3c0.4,0.2,0.8,0.5,1.2,0.9c0.3,0.4,0.6,0.9,0.8,1.4
	c0.1,0.3,0.2,0.5,0.2,0.8c0,0.3,0.1,0.6,0,0.8v4.2h-9v1c0,0.1,0,0.2,0,0.4c0,0.1,0.1,0.2,0.2,0.4l0.3,0.2l0.3,0.1h8.1v3.1h-8.1
	C47.2,13.6,46.7,13.5,46.3,13.3z M3.5,8.4c-0.2,0-0.5,0-0.7-0.1c-0.2,0-0.5-0.1-0.7-0.2C1.6,7.9,1.3,7.5,0.9,7.2
	C0.6,6.7,0.4,6.3,0.2,5.8C0,5.3-0.1,4.7-0.1,4.2c0-0.3,0-0.6,0-0.8C0,3.1,0,2.9,0.1,2.6c0.2-0.5,0.5-0.9,0.8-1.4
	c0.3-0.4,0.7-0.7,1.2-0.9C2.5,0.1,3,0,3.5,0h18v3.1H17v10.5h-2.7V3.1H3.5c-0.1,0-0.2,0-0.3,0.1C3,3.3,2.9,3.4,2.8,3.5L2.7,3.8l0,0.4
	c0,0.1,0,0.3,0,0.4c0,0.1,0.1,0.3,0.2,0.4l0.3,0.2l0.3,0.1h5.1c0.2,0,0.5,0,0.7,0.1c0.2,0,0.5,0.1,0.7,0.2c0.4,0.2,0.8,0.6,1.2,0.9
	c0.3,0.4,0.6,0.9,0.8,1.4c0.2,0.5,0.3,1.1,0.3,1.6c0,0.6-0.1,1.1-0.3,1.6c-0.1,0.5-0.4,1-0.8,1.4c-0.3,0.4-0.7,0.7-1.2,0.9
	c-0.4,0.2-0.9,0.3-1.4,0.3h-8.7v-3.1h8.7c0.1,0,0.2,0,0.4-0.1c0.1-0.1,0.2-0.1,0.3-0.2c0.1-0.1,0.2-0.2,0.2-0.4l0-0.4
	c0-0.2,0-0.3,0-0.4c0-0.1-0.1-0.2-0.2-0.3C9.2,8.6,9.1,8.5,8.9,8.4L8.6,8.4L3.5,8.4z M36,5.2h5.4l0.3-0.1C41.9,5.1,42,5,42.1,4.9
	c0-0.1,0.2-0.2,0.2-0.3l0.1-0.4l-0.1-0.4c0-0.2-0.1-0.3-0.2-0.4l-0.3-0.2l-0.4-0.1H36L36,5.2z M21.9,13.6V0h2.7v13.6L21.9,13.6z
	 M53.3,5.2v-1c0-0.2,0-0.3,0-0.4c-0.1-0.1-0.1-0.2-0.2-0.3l-0.3-0.2l-0.3-0.1h-4.5c-0.1,0-0.2,0-0.3,0.1l-0.3,0.3
	c-0.1,0.1-0.2,0.2-0.2,0.3L47,4.2v1L53.3,5.2z"/>
</svg>
