<svg xmlns="http://www.w3.org/2000/svg" width="55.727" height="13.621" viewBox="0 0 55.727 13.621">
  <path id="logostirpe" d="M46.208-32.293a3.591,3.591,0,0,1-1.123-.891,4.294,4.294,0,0,1-.808-1.415,1.32,1.32,0,0,1-.135-.524,4.193,4.193,0,0,1-.135-1.048v-2.672a1.37,1.37,0,0,1-.314.419,3.858,3.858,0,0,1-1.123.891,2.609,2.609,0,0,1-.584.21,1.719,1.719,0,0,1-.763.1h-5.3v5.239H33.23v-8.906H30.536v-.524a1.335,1.335,0,0,0-.045-.419,1.365,1.365,0,0,0-.225-.314L30-42.352l-.314-.1H27.8v10.478H25.147V-45.6h4.491a2.639,2.639,0,0,1,1.347.314,3.468,3.468,0,0,1,1.168.891,4.213,4.213,0,0,1,.763,1.362,10.115,10.115,0,0,1,.314,1.1V-45.6h7.948c.269,0,.494.052.718.052a5.335,5.335,0,0,1,.674.262,3.966,3.966,0,0,1,1.168.891,4.247,4.247,0,0,1,.674,1.1,4.841,4.841,0,0,1,.674-1.1,3.517,3.517,0,0,1,1.168-.891,1.675,1.675,0,0,1,.674-.21,3.019,3.019,0,0,1,.718-.1H52.18a2.757,2.757,0,0,1,1.347.314,3.966,3.966,0,0,1,1.168.891,4.213,4.213,0,0,1,.763,1.362,5.165,5.165,0,0,1,.225.786,4.929,4.929,0,0,1,.045.838v4.191H46.746v1.048a1.182,1.182,0,0,0,.045.367c.045.1.135.21.225.367l.269.21.314.1h8.083v3.143H47.6a2.938,2.938,0,0,1-1.392-.314ZM3.548-37.218a3.02,3.02,0,0,1-.718-.1,3.324,3.324,0,0,1-.674-.21,3.591,3.591,0,0,1-1.123-.891,6.031,6.031,0,0,1-.763-1.415A4.82,4.82,0,0,1,0-41.409a4.929,4.929,0,0,1,.045-.838c.045-.21.09-.472.18-.786A7.232,7.232,0,0,1,1.033-44.4,4.747,4.747,0,0,1,2.2-45.286,3.017,3.017,0,0,1,3.548-45.6H21.555v3.143H17.064v10.478H14.37V-42.457H3.548a.385.385,0,0,0-.314.1.707.707,0,0,0-.314.21l-.18.314-.045.419a.527.527,0,0,0,.045.367.887.887,0,0,0,.18.367l.314.21.314.1H8.667a3.121,3.121,0,0,1,.718.052,3.324,3.324,0,0,1,.674.21,4.616,4.616,0,0,1,1.168.943,4.647,4.647,0,0,1,.808,1.362A4.68,4.68,0,0,1,12.3-36.17a4.9,4.9,0,0,1-.269,1.624,3.335,3.335,0,0,1-.763,1.362,3.085,3.085,0,0,1-1.168.891,3.208,3.208,0,0,1-1.392.314H0v-3.143H8.667a.752.752,0,0,0,.359-.1.942.942,0,0,0,.269-.21A2.245,2.245,0,0,0,9.52-35.8l.045-.367c0-.157-.045-.314-.045-.419-.045-.1-.135-.21-.18-.314a.822.822,0,0,0-.314-.262l-.359-.052Zm32.377-3.143h5.434l.314-.1a2.5,2.5,0,0,0,.314-.21c.045-.1.18-.157.18-.314l.135-.419-.09-.367a.459.459,0,0,0-.225-.367l-.269-.21-.359-.1H35.924ZM22-31.979V-45.6H24.7v13.621Zm31.209-8.382v-1.048c0-.157-.045-.262-.045-.419a1.364,1.364,0,0,0-.225-.314l-.269-.21-.314-.1H47.824a.578.578,0,0,0-.269.1l-.314.262a1.628,1.628,0,0,0-.225.314l-.09.367v1.048Z" transform="translate(0 45.6)" fill="#f9f9f9"/>
</svg>
