<svg id="Capa_2" data-name="Capa 2" xmlns="http://www.w3.org/2000/svg" width="61.263" height="18.877" viewBox="0 0 61.263 18.877">
  <g id="Layer_1" data-name="Layer 1">
    <path id="Trazado_8" data-name="Trazado 8" d="M2.555,12.118a5.032,5.032,0,0,0,1.291,3.655,4.789,4.789,0,0,0,3.586,1.314,4.956,4.956,0,0,0,3.627-1.356,4.8,4.8,0,0,0,1.393-3.567A5.133,5.133,0,0,0,11.129,8.4a4.95,4.95,0,0,0-3.7-1.352A4.77,4.77,0,0,0,3.846,8.388a5.228,5.228,0,0,0-1.291,3.73m34.264-1.059h8.825v-.176a3.632,3.632,0,0,0-1.166-2.866,4.761,4.761,0,0,0-3.251-1.031,4.445,4.445,0,0,0-3.131,1.1,4.18,4.18,0,0,0-1.277,2.977Zm10.9,3.511V12.633H36.721a4.529,4.529,0,0,0,1.249,3.335,4.781,4.781,0,0,0,3.446,1.17,4.747,4.747,0,0,0,2.666-.673,2.7,2.7,0,0,0,1.222-1.9Zm0,3.99V15.518a4.333,4.333,0,0,1-1.8,2.267A8.847,8.847,0,0,1,41.2,18.848a7.246,7.246,0,0,1-5.142-1.76A6.338,6.338,0,0,1,34.2,12.243,6.791,6.791,0,0,1,35.792,7.6h-.181a5.509,5.509,0,0,0-3.892,1.17,4.891,4.891,0,0,0-1.24,3.716v6.094H27.952V12.633H16.721a4.529,4.529,0,0,0,1.249,3.335,4.781,4.781,0,0,0,3.446,1.17,4.747,4.747,0,0,0,2.666-.673,2.7,2.7,0,0,0,1.222-1.9h2.652a4.515,4.515,0,0,1-2.039,3.214A8.847,8.847,0,0,1,21.2,18.848a7.246,7.246,0,0,1-5.142-1.76,5.713,5.713,0,0,1-1.319-1.89c0,.65.023,1.222.056,1.709.042.571.1,1.124.172,1.654H12.434l-.186-1.988a6.131,6.131,0,0,1-2.3,1.732,7.571,7.571,0,0,1-3.038.571,6.832,6.832,0,0,1-5.035-1.858A6.667,6.667,0,0,1,0,12.076,6.479,6.479,0,0,1,1.909,7.157,7.115,7.115,0,0,1,6.986,5.3a7.8,7.8,0,0,1,2.889.516,7.352,7.352,0,0,1,2.4,1.57V0h2.452V9.252a6.075,6.075,0,0,1,1.431-2.072,7.549,7.549,0,0,1,5.369-1.858,6.707,6.707,0,0,1,4.942,1.723,5.662,5.662,0,0,1,1.486,2.708q0-.906-.056-1.858c-.037-.734-.093-1.491-.172-2.271h2.545l.121,2.411a4.552,4.552,0,0,1,1.988-2.053,7.078,7.078,0,0,1,3.3-.673h.464v1.9l.028-.028a7.528,7.528,0,0,1,5.369-1.858,6.7,6.7,0,0,1,4.937,1.723,5.457,5.457,0,0,1,1.235,1.923V0H50.19V10.831l6.693-5.207h3.274l-7.134,5.523,8.24,7.431H57.691L50.19,11.4v7.181Zm-30.91-7.5h8.825v-.176a3.632,3.632,0,0,0-1.166-2.866,4.765,4.765,0,0,0-3.251-1.031,4.44,4.44,0,0,0-3.1,1.1,4.18,4.18,0,0,0-1.31,2.977Z" fill="#fff"/>
  </g>
</svg>
