<svg xmlns="http://www.w3.org/2000/svg" viewBox="0 0 124.1 26"><defs><style>.cls-1{fill:#f2f4f9;}</style></defs><g id="Layer_2" data-name="Layer 2"><g id="Layer_1-2" data-name="Layer 1"><path class="cls-1" d="M102.9,25.4A8.18,8.18,0,0,1,98.6,21a2.24,2.24,0,0,1-.3-1,6.93,6.93,0,0,1-.3-2V12.9a2.7,2.7,0,0,1-.7.8,8.52,8.52,0,0,1-2.5,1.7,6.47,6.47,0,0,1-1.3.4,4.42,4.42,0,0,1-1.7.2H80V26H74V9H68V8a2.2,2.2,0,0,0-.1-.8,2.65,2.65,0,0,0-.5-.6l-.6-.4L66.1,6H61.9V26H56V0H66a6.68,6.68,0,0,1,3,.6,7.73,7.73,0,0,1,2.6,1.7,7.82,7.82,0,0,1,1.7,2.6A17.23,17.23,0,0,1,74,7V0H91.7c.6,0,1.1.1,1.6.1a13.14,13.14,0,0,1,1.5.5,8.85,8.85,0,0,1,2.6,1.7,8,8,0,0,1,1.5,2.1,9.12,9.12,0,0,1,1.5-2.1A7.82,7.82,0,0,1,103,.6a4.19,4.19,0,0,1,1.5-.4,7.77,7.77,0,0,1,1.6-.2h10.1a7,7,0,0,1,3,.6,8.85,8.85,0,0,1,2.6,1.7,7.82,7.82,0,0,1,1.7,2.6,8.8,8.8,0,0,1,.5,1.5,8.08,8.08,0,0,1,.1,1.6v8h-20v2a2,2,0,0,0,.1.7c.1.2.3.4.5.7l.6.4.7.2h18v6H106a7.45,7.45,0,0,1-3.1-.6ZM7.9,16a7.77,7.77,0,0,1-1.6-.2,8.33,8.33,0,0,1-1.5-.4,7.94,7.94,0,0,1-2.5-1.7A11.1,11.1,0,0,1,.6,11,8,8,0,0,1,0,8,8.08,8.08,0,0,1,.1,6.4c.1-.4.2-.9.4-1.5A13.54,13.54,0,0,1,2.3,2.3,10.57,10.57,0,0,1,4.9.6a7.65,7.65,0,0,1,3-.6H48V6H38V26H32V6H7.9a1,1,0,0,0-.7.2,1.61,1.61,0,0,0-.7.4l-.4.6L6,8a.88.88,0,0,0,.1.7,1.61,1.61,0,0,0,.4.7l.7.4.7.2H19.3a8.08,8.08,0,0,1,1.6.1,8.33,8.33,0,0,1,1.5.4A10.17,10.17,0,0,1,25,12.3a8.7,8.7,0,0,1,1.8,2.6,7.79,7.79,0,0,1,.6,3.1,8.15,8.15,0,0,1-.6,3.1,6.19,6.19,0,0,1-1.7,2.6,6.87,6.87,0,0,1-2.6,1.7,8.15,8.15,0,0,1-3.1.6H0V20H19.3a1.88,1.88,0,0,0,.8-.2,2.09,2.09,0,0,0,.6-.4,4.23,4.23,0,0,0,.5-.7l.1-.7c0-.3-.1-.6-.1-.8s-.3-.4-.4-.6a1.79,1.79,0,0,0-.7-.5l-.8-.1ZM80,10H92.1l.7-.2a5.74,5.74,0,0,0,.7-.4c.1-.2.4-.3.4-.6l.3-.8L94,7.3c0-.3-.2-.5-.5-.7l-.6-.4L92.1,6H80ZM49,26V0h6V26Zm69.5-16V8c0-.3-.1-.5-.1-.8a2.65,2.65,0,0,0-.5-.6l-.6-.4-.7-.2H106.5a1.42,1.42,0,0,0-.6.2l-.7.5a3.17,3.17,0,0,0-.5.6l-.2.7v2Z"/></g></g></svg>